<svg xmlns="http://www.w3.org/2000/svg" xmlns:xlink="http://www.w3.org/1999/xlink" data-name="Layer 3" viewBox="0 0 64 64"><defs><linearGradient id="a" x1="-4.46" x2="-4.03" y1="-20.46" y2="-20.46" data-name="Light gradient" gradientTransform="matrix(0 -88.49 -132.73 0 -2683.56 -352.64)" gradientUnits="userSpaceOnUse"><stop offset=".14" stop-color="#d2ebff"/><stop offset=".51" stop-color="#dbf1fe"/><stop offset=".99" stop-color="#f0fffd"/></linearGradient><linearGradient id="b" x1="-10.99" x2="-10.55" y1="-22.76" y2="-22.76" gradientTransform="matrix(0 -34.18 -66.37 0 -1478.5 -318.46)" gradientUnits="userSpaceOnUse"><stop offset=".15" stop-color="#0078d4"/><stop offset=".35" stop-color="#0072ca"/><stop offset=".69" stop-color="#0064b0"/><stop offset=".85" stop-color="#005ba1"/></linearGradient><linearGradient xlink:href="#a" id="c" x1="-523.61" x2="-501" y1="98.86" y2="98.86" data-name="Light gradient" gradientTransform="matrix(1 0 0 -1 564 135.68)"/></defs><path d="M3.41 40.29c0 1.07.86 1.93 1.93 1.93h53.95c1.07 0 1.93-.86 1.93-1.93V5.62c0-1.07-.86-1.93-1.93-1.93H5.34c-1.07 0-1.93.86-1.93 1.93V40.3Z" style="fill-rule:evenodd;stroke-width:0px;fill:url(#a)"/><path d="M58.63 6.28v33.36H6V6.28h52.63Zm.66-2.6H5.34c-1.06 0-1.93.86-1.92 1.93v34.68c0 1.06.86 1.92 1.92 1.92H59.3c1.06 0 1.92-.86 1.92-1.92V5.62c0-1.06-.86-1.93-1.92-1.93Z" style="fill:#0078d4;fill-rule:evenodd;stroke-width:0px"/><path d="M43.38 53.88c-5.72-.89-5.94-5.01-5.92-11.65H26.12c0 6.64-.21 10.76-5.92 11.65-1.61.25-2.81 1.61-2.85 3.23h28.91c-.05-1.63-1.26-2.99-2.87-3.23Z" style="fill:url(#b);fill-rule:evenodd;stroke-width:0px"/><path d="M63 39.82c-.07-2.49-1.94-4.56-4.41-4.88-.15-3.5-3.09-6.23-6.59-6.12-2.79-.05-5.3 1.67-6.28 4.28-2.98.36-5.24 2.84-5.33 5.84.13 3.39 2.98 6.03 6.37 5.91.19 0 .38 0 .56-.02h10.31c.09 0 .18-.02.27-.04 2.75-.02 5-2.2 5.1-4.95Z" style="fill:url(#c);stroke:#06c;stroke-miterlimit:3"/></svg>