<!-- Exported by Character Map UWP -->
<svg height="100%" viewBox="0 0 1024 1024" width="100%" xmlns="http://www.w3.org/2000/svg" xmlns:xlink="http://www.w3.org/1999/xlink">
  <path d="M192,256L192,251C192,216.333 198.917,183.75 212.75,153.25C226.583,122.75 245.25,96.1667 268.75,73.5C292.25,50.8334 319.417,32.9167 350.25,19.75C381.083,6.58337 413.667,0 448,0C483.333,0 516.583,6.66669 547.75,20C578.917,33.3334 606.083,51.5834 629.25,74.75C652.417,97.9167 670.667,125.083 684,156.25C697.333,187.417 704,220.667 704,256C704,291.333 697.333,324.583 684,355.75C670.667,386.917 652.417,414.083 629.25,437.25C606.083,460.417 578.917,478.667 547.75,492C516.583,505.333 483.333,512 448,512C412.667,512 379.417,505.333 348.25,492C317.083,478.667 289.917,460.417 266.75,437.25C243.583,414.083 225.333,386.917 212,355.75C198.667,324.583 192,291.333 192,256ZM640,256L640,252C640,226 634.833,201.583 624.5,178.75C614.167,155.917 600.167,136 582.5,119C564.833,102 544.417,88.5834 521.25,78.75C498.083,68.9167 473.667,64.0001 448,64C421.333,64.0001 396.333,69.0001 373,79C349.667,89.0001 329.333,102.667 312,120C294.667,137.333 281,157.667 271,181C261,204.333 256,229.333 256,256C256,282.667 261,307.667 271,331C281,354.333 294.667,374.667 312,392C329.333,409.333 349.667,423 373,433C396.333,443 421.333,448 448,448C474.667,448 499.667,443 523,433C546.333,423 566.667,409.333 584,392C601.333,374.667 615,354.333 625,331C635,307.667 640,282.667 640,256ZM480,1024C471.333,1024 463.833,1020.83 457.5,1014.5C451.167,1008.17 448,1000.67 448,992L448,896C448,887.333 451.167,879.833 457.5,873.5L645.5,685.5C641.833,668.167 640,651.667 640,636C640,610 645.167,585.583 655.5,562.75C665.833,539.917 679.833,520 697.5,503C715.167,486 735.583,472.583 758.75,462.75C781.917,452.917 806.333,448 832,448C858.667,448 883.667,453 907,463C930.333,473 950.667,486.667 968,504C985.333,521.333 999,541.667 1009,565C1019,588.333 1024,613.333 1024,640C1024,665.667 1019.08,690.083 1009.25,713.25C999.417,736.417 986,756.833 969,774.5C952,792.167 932.083,806.167 909.25,816.5C886.417,826.833 862,832 836,832C824.333,832 812.833,831.167 801.5,829.5C790.167,827.833 779,825 768,821C768,824.667 768.083,828.833 768.25,833.5C768.417,838.167 768.5,843 768.5,848C768.5,854 768.167,859.833 767.5,865.5C766.833,871.167 765.333,876.25 763,880.75C760.667,885.25 757.333,888.917 753,891.75C748.667,894.583 743,896 736,896L704,896C704,911.667 703.583,923.75 702.75,932.25C701.917,940.75 699.417,947.083 695.25,951.25C691.083,955.417 684.667,957.917 676,958.75C667.333,959.583 655.333,960 640,960L640,977C640,982.667 639.667,988.25 639,993.75C638.333,999.25 636.917,1004.25 634.75,1008.75C632.583,1013.25 629.417,1016.92 625.25,1019.75C621.083,1022.58 615.333,1024 608,1024ZM928,592C928,578.667 923.333,567.333 914,558C904.667,548.667 893.333,544 880,544C866.667,544 855.333,548.667 846,558C836.667,567.333 832,578.667 832,592C832,605.333 836.667,616.667 846,626C855.333,635.333 866.667,640 880,640C893.333,640 904.667,635.333 914,626C923.333,616.667 928,605.333 928,592ZM0,704C0,686.333 3.33333,669.75 10,654.25C16.6667,638.75 25.8333,625.167 37.5,613.5C49.1667,601.833 62.75,592.667 78.25,586C93.75,579.333 110.333,576 128,576L584,576C581.333,586.667 579.333,597.333 578,608C576.667,618.667 576,629.333 576,640L128,640C119,640 110.583,641.667 102.75,645C94.9167,648.333 88.1667,652.833 82.5,658.5C76.8333,664.167 72.3333,670.917 69,678.75C65.6667,686.583 64,695 64,704C64,733.667 68.4167,760.25 77.25,783.75C86.0833,807.25 98.1667,828.083 113.5,846.25C128.833,864.417 146.833,880.083 167.5,893.25C188.167,906.417 210.333,917.417 234,926.25C257.667,935.083 282.333,942 308,947C333.667,952 359,955.5 384,957.5C384,961.833 383.917,966.083 383.75,970.25C383.583,974.417 383.5,978.833 383.5,983.5C383.5,990.167 383.833,996.75 384.5,1003.25C385.167,1009.75 386.667,1016 389,1022C357.333,1020 325.75,1015.83 294.25,1009.5C262.75,1003.17 232.583,994.333 203.75,983C174.917,971.667 148.083,957.583 123.25,940.75C98.4167,923.917 76.9167,904.083 58.75,881.25C40.5833,858.417 26.25,832.333 15.75,803C5.25,773.667 0,740.667 0,704Z" fill="#000000" fill-opacity="1">
  </path>
</svg>